<svg
   width="256"
   height="256"
   fill="none"
   viewBox="0 0 256 256"
   xmlns="http://www.w3.org/2000/svg">
   <rect
     width="256"
     height="256"
     fill="#F4F2ED"
     rx="60" />
   <g
     transform="matrix(0.63642775,0,0,0.59486151,46.537248,51.857727)">
     <path
       d="m 9.4594315,170.33592 c -4.6762843,0 -8.46718344,-3.79048 -8.46718344,-8.46719 V 9.4594315 c 0,-4.6762843 3.79089914,-8.46718344 8.46718344,-8.46718344 H 161.86873 c 4.67671,0 8.46719,3.79089914 8.46719,8.46718344 V 85.664083 h 76.20465 c 4.67671,0 8.46718,3.791181 8.46718,8.467183 V 246.54057 c 0,4.67671 -3.79047,8.46718 -8.46718,8.46718 H 94.131266 c -4.676002,0 -8.467183,-3.79047 -8.467183,-8.46718 v -76.20465 z"
       fill="#ffffff" />
     <path
       d="M 161.86873,0 H 9.4594315 C 4.2351437,0 0,4.2351437 0,9.4594315 V 161.86873 l 0.00376012,0.26934 c 0.14256866,5.10001 4.32132138,9.1901 9.45567138,9.1901 l 75.2120725,-6.7e-4 3.31e-4,75.21307 c 0,5.22448 4.235195,9.45943 9.459431,9.45943 H 246.54057 C 251.76528,256 256,251.76528 256,246.54057 V 94.131266 l -0.004,-0.26932 c -0.14257,-5.099699 -4.32127,-9.190111 -9.45567,-9.190111 l -75.21307,-3.31e-4 6.7e-4,-75.2120725 C 171.32817,4.2350052 167.09331,0 161.86873,0 Z m 0,1.9844961 c 4.12855,0 7.47494,3.3465007 7.47494,7.4749354 V 85.664083 c 0,0.548003 0.44424,0.992248 0.99225,0.992248 h 76.20465 c 4.12845,0 7.47493,3.34668 7.47493,7.474935 V 246.54057 c 0,4.1287 -3.34623,7.47493 -7.47493,7.47493 H 94.131266 c -4.128255,0 -7.474935,-3.34648 -7.474935,-7.47493 v -76.20465 c 0,-0.54801 -0.444245,-0.99225 -0.992248,-0.99225 H 9.4594315 c -4.1284347,0 -7.4749354,-3.34639 -7.4749354,-7.47494 V 9.4594315 c 0,-4.1282808 3.3466546,-7.4749354 7.4749354,-7.4749354 z"
       fill="#16161a" />
     <path
       d="m 57.440138,128 c -3.89688,0 -7.055986,-3.15896 -7.055986,-7.05599 V 43.328165 c 0,-3.89688 3.159106,-7.055986 7.055986,-7.055986 H 83.92196 c 5.129702,0 9.920716,0.515863 14.373044,1.547519 4.548996,0.937952 8.469296,2.579316 11.760216,4.924091 3.38758,2.251 6.04909,5.299186 7.98526,9.144628 1.93545,3.751668 2.90353,8.394578 2.90353,13.927882 0,5.346321 -1.01606,9.98916 -3.04889,13.927811 -1.93545,3.939357 -4.59768,7.175233 -7.98526,9.707626 -3.38758,2.532393 -7.30788,4.40858 -11.76021,5.627855 -4.452327,1.219274 -9.194655,1.828911 -14.22769,1.828911 h -5.139581 c -3.897021,0 -7.055986,3.158968 -7.055986,7.055988 v 16.97952 c 0,3.89703 -3.158965,7.05599 -7.055986,7.05599 z M 71.726393,73.391606 c 0,3.897021 3.158965,7.055986 7.055986,7.055986 h 3.832812 c 11.614859,0 17.421939,-4.877098 17.421939,-14.631293 0,-4.783253 -1.500106,-8.159542 -4.500311,-10.129362 -2.903539,-1.969608 -7.211218,-2.954412 -12.921628,-2.954412 h -3.832812 c -3.897021,0 -7.055986,3.159106 -7.055986,7.055845 z"
       fill="#16161a" />
     <path
       d="m 142.11197,219.72782 c -3.89702,0 -7.05598,-3.15896 -7.05598,-7.05599 v -77.61584 c 0,-3.89703 3.15896,-7.05599 7.05598,-7.05599 h 24.60917 c 4.9159,0 9.44655,0.37538 13.59124,1.12543 4.24135,0.65691 7.90482,1.87619 10.98899,3.65782 3.08488,1.78234 5.4945,4.12705 7.22956,7.03412 1.83174,2.90777 2.7469,6.56559 2.7469,10.97417 0,2.06317 -0.33728,4.12634 -1.01183,6.19022 -0.57859,2.06317 -1.54244,3.98592 -2.89154,5.76756 -1.34981,1.78234 -3.0369,3.377 -5.06056,4.78396 -1.96015,1.3618 -4.28086,2.37222 -6.96355,3.03055 -0.15594,0.0388 -0.26601,0.17781 -0.26601,0.33798 v 0 c 0,0.16722 0.12066,0.31046 0.28506,0.34151 6.60652,1.23338 11.6198,3.56045 15.04125,6.9819 3.47013,3.47013 5.2052,8.30066 5.2052,14.49087 0,4.68941 -0.91587,8.72261 -2.7469,12.0989 -1.83173,3.37629 -4.386,6.19022 -7.6635,8.44108 -3.27751,2.15701 -7.1329,3.79894 -11.56759,4.92437 -4.33731,1.03159 -9.06059,1.54738 -14.16912,1.54738 z m 14.19876,-61.92404 c 0,3.89702 3.15897,7.05599 7.05599,7.05599 h 2.34259 c 5.2052,0 8.96463,-0.98431 11.27758,-2.95435 2.31366,-1.96932 3.47013,-4.73668 3.47013,-8.30066 0,-3.37629 -1.20445,-5.76827 -3.61478,-7.17452 -2.31295,-1.50081 -5.97642,-2.25157 -10.98828,-2.25157 h -2.48724 c -3.89702,0 -7.05599,3.15967 -7.05599,7.05599 z m 0,38.68938 c 0,3.89632 3.15897,7.05599 7.05599,7.05599 h 4.36624 c 11.37496,0 17.06208,-4.12705 17.06208,-12.38043 0,-4.03321 -1.39779,-6.94098 -4.19337,-8.72261 -2.69891,-1.78235 -6.98825,-2.67352 -12.86871,-2.67352 h -4.36624 c -3.89702,0 -7.05599,3.15897 -7.05599,7.05599 z"
       fill="#16161a" />
   </g>
</svg>
