<svg width="256" height="256" viewBox="0 0 256 256" fill="none" xmlns="http://www.w3.org/2000/svg">
<g clip-path="url(#clip0_33_841)">
<path d="M196 0H60C26.8629 0 0 26.8629 0 60V196C0 229.137 26.8629 256 60 256H196C229.137 256 256 229.137 256 196V60C256 26.8629 229.137 0 196 0Z" fill="#F4F2ED"/>
<g clip-path="url(#clip1_33_841)">
<path d="M129.353 102.949L94.4607 163.518L127.5 220.891L171.26 144.946L215 69H148.902L129.353 102.949Z" fill="#1697F6"/>
<path d="M83.7599 144.946L86.0515 148.94L118.692 92.265L132.103 69H127.5H40L83.7599 144.946Z" fill="#AEDDFF"/>
<path d="M148.902 69C165.441 123.538 127.5 220.891 127.5 220.891L94.4607 163.518L148.902 69Z" fill="#1867C0"/>
<path d="M132.103 69C62.4183 69 86.0518 148.94 86.0518 148.94L132.103 69Z" fill="#7BC6FF"/>
</g>
</g>
<defs>
<clipPath id="clip0_33_841">
<rect width="256" height="256" fill="white"/>
</clipPath>
<clipPath id="clip1_33_841">
<rect width="175" height="152" fill="white" transform="translate(40 69)"/>
</clipPath>
</defs>
</svg>
<svg width="256" height="256" fill="none" version="1.1" viewBox="0 0 256 256" xml:space="preserve" xmlns="http://www.w3.org/2000/svg"><rect width="256" height="256" rx="60" fill="#f4f2ee"/><g transform="matrix(.49049 0 0 .49049 22.054 34.127)"><path d="m219.9 103.25-73.374 127.12 69.477 120.41 92.021-159.39 91.979-159.39h-139z" fill="#1697f6"/><path d="m124.02 191.39 4.819 8.382 68.638-118.94 28.202-48.826h-193.68z" fill="#aeddff"/><path d="m261 32c34.78 114.46-45.005 318.77-45.005 318.77l-69.477-120.41z" fill="#1867c0"/><path d="m225.68 32c-146.54 0-96.84 167.77-96.84 167.77z" fill="#7bc6ff"/></g></svg>
